<svg width="543" height="371" viewBox="0 0 543 371" fill="none" xmlns="http://www.w3.org/2000/svg">
<g clip-path="url(#clip0_2_19)">
<path d="M64.2459 0L0 63.4702L0.391743 262.476L54.844 316.928V361.195H55.2358L64.2459 370.205L73.256 361.195H73.6477V317.32L128.492 262.476V63.4702L64.2459 0Z" fill="url(#paint0_linear_2_19)"/>
</g>
<mask id="path-2-outside-1_2_19" maskUnits="userSpaceOnUse" x="199" y="130" width="292" height="104" fill="black">
<rect fill="white" x="199" y="130" width="292" height="104"/>
<path d="M200.454 208V131.587H233.946C242.256 131.587 248.651 133.357 253.131 136.898C257.611 140.366 259.851 145.207 259.851 151.422C259.851 156.046 258.478 159.948 255.732 163.127C252.986 166.307 249.193 168.438 244.351 169.522V167.896C249.915 168.691 254.215 170.715 257.25 173.966C260.357 177.146 261.91 181.373 261.91 186.648C261.91 193.44 259.562 198.715 254.865 202.472C250.168 206.157 243.629 208 235.247 208H200.454ZM213.894 197.378H233.621C238.318 197.378 241.967 196.511 244.568 194.777C247.169 192.97 248.47 190.044 248.47 185.997C248.47 181.879 247.169 178.952 244.568 177.218C241.967 175.411 238.318 174.508 233.621 174.508H213.894V197.378ZM213.894 163.995H231.562C236.547 163.995 240.233 163.091 242.617 161.285C245.074 159.406 246.302 156.66 246.302 153.047C246.302 149.434 245.074 146.725 242.617 144.918C240.233 143.04 236.547 142.1 231.562 142.1H213.894V163.995ZM273.121 232.604L269.977 221.874C273.374 221.151 276.228 220.32 278.54 219.381C280.852 218.441 282.767 217.213 284.285 215.696C285.802 214.178 287.067 212.227 288.078 209.843L290.788 203.448L290.463 208.759L266.617 153.264H281.033L298.158 195.969H295.015L312.249 153.264H325.906L300.976 211.035C299.314 214.937 297.508 218.152 295.557 220.681C293.606 223.283 291.511 225.342 289.271 226.859C287.03 228.449 284.574 229.678 281.9 230.545C279.227 231.412 276.3 232.098 273.121 232.604ZM333.056 208V166.921C333.056 164.681 332.984 162.405 332.839 160.093C332.695 157.78 332.478 155.504 332.189 153.264H345.304L346.388 164.103H345.087C346.821 160.273 349.386 157.347 352.782 155.323C356.179 153.228 360.117 152.18 364.597 152.18C371.028 152.18 375.869 153.987 379.121 157.6C382.372 161.213 383.998 166.849 383.998 174.508V208H370.45V175.158C370.45 170.751 369.583 167.607 367.848 165.729C366.186 163.778 363.657 162.802 360.261 162.802C356.07 162.802 352.746 164.103 350.29 166.704C347.833 169.306 346.604 172.774 346.604 177.109V208H333.056ZM424.81 209.084C415.634 209.084 408.444 206.555 403.241 201.497C398.039 196.439 395.437 189.502 395.437 180.686C395.437 174.978 396.557 169.992 398.797 165.729C401.037 161.465 404.144 158.142 408.119 155.757C412.165 153.373 416.862 152.18 422.209 152.18C427.484 152.18 431.892 153.3 435.432 155.54C438.973 157.78 441.647 160.924 443.453 164.97C445.332 169.016 446.271 173.749 446.271 179.169V182.746H406.384V175.592H436.625L434.782 177.109C434.782 172.051 433.698 168.186 431.53 165.512C429.435 162.838 426.364 161.502 422.317 161.502C417.837 161.502 414.369 163.091 411.912 166.271C409.528 169.45 408.335 173.894 408.335 179.602V181.011C408.335 186.937 409.781 191.381 412.671 194.343C415.634 197.233 419.788 198.679 425.136 198.679C428.243 198.679 431.133 198.281 433.807 197.486C436.552 196.619 439.154 195.246 441.611 193.368L445.621 202.472C443.02 204.568 439.912 206.194 436.3 207.35C432.687 208.506 428.857 209.084 424.81 209.084ZM480.944 209.084C474.441 209.084 469.527 207.386 466.204 203.99C462.88 200.593 461.218 195.499 461.218 188.707V163.453H450.704V153.264H461.218V139.282L474.766 135.814V153.264H489.399V163.453H474.766V187.84C474.766 191.597 475.489 194.235 476.934 195.752C478.379 197.27 480.366 198.028 482.895 198.028C484.268 198.028 485.424 197.92 486.364 197.703C487.375 197.486 488.351 197.197 489.29 196.836V207.566C488.062 208.072 486.689 208.434 485.171 208.65C483.726 208.939 482.317 209.084 480.944 209.084Z"/>
</mask>
<path d="M200.454 208V131.587H233.946C242.256 131.587 248.651 133.357 253.131 136.898C257.611 140.366 259.851 145.207 259.851 151.422C259.851 156.046 258.478 159.948 255.732 163.127C252.986 166.307 249.193 168.438 244.351 169.522V167.896C249.915 168.691 254.215 170.715 257.25 173.966C260.357 177.146 261.91 181.373 261.91 186.648C261.91 193.44 259.562 198.715 254.865 202.472C250.168 206.157 243.629 208 235.247 208H200.454ZM213.894 197.378H233.621C238.318 197.378 241.967 196.511 244.568 194.777C247.169 192.97 248.47 190.044 248.47 185.997C248.47 181.879 247.169 178.952 244.568 177.218C241.967 175.411 238.318 174.508 233.621 174.508H213.894V197.378ZM213.894 163.995H231.562C236.547 163.995 240.233 163.091 242.617 161.285C245.074 159.406 246.302 156.66 246.302 153.047C246.302 149.434 245.074 146.725 242.617 144.918C240.233 143.04 236.547 142.1 231.562 142.1H213.894V163.995ZM273.121 232.604L269.977 221.874C273.374 221.151 276.228 220.32 278.54 219.381C280.852 218.441 282.767 217.213 284.285 215.696C285.802 214.178 287.067 212.227 288.078 209.843L290.788 203.448L290.463 208.759L266.617 153.264H281.033L298.158 195.969H295.015L312.249 153.264H325.906L300.976 211.035C299.314 214.937 297.508 218.152 295.557 220.681C293.606 223.283 291.511 225.342 289.271 226.859C287.03 228.449 284.574 229.678 281.9 230.545C279.227 231.412 276.3 232.098 273.121 232.604ZM333.056 208V166.921C333.056 164.681 332.984 162.405 332.839 160.093C332.695 157.78 332.478 155.504 332.189 153.264H345.304L346.388 164.103H345.087C346.821 160.273 349.386 157.347 352.782 155.323C356.179 153.228 360.117 152.18 364.597 152.18C371.028 152.18 375.869 153.987 379.121 157.6C382.372 161.213 383.998 166.849 383.998 174.508V208H370.45V175.158C370.45 170.751 369.583 167.607 367.848 165.729C366.186 163.778 363.657 162.802 360.261 162.802C356.07 162.802 352.746 164.103 350.29 166.704C347.833 169.306 346.604 172.774 346.604 177.109V208H333.056ZM424.81 209.084C415.634 209.084 408.444 206.555 403.241 201.497C398.039 196.439 395.437 189.502 395.437 180.686C395.437 174.978 396.557 169.992 398.797 165.729C401.037 161.465 404.144 158.142 408.119 155.757C412.165 153.373 416.862 152.18 422.209 152.18C427.484 152.18 431.892 153.3 435.432 155.54C438.973 157.78 441.647 160.924 443.453 164.97C445.332 169.016 446.271 173.749 446.271 179.169V182.746H406.384V175.592H436.625L434.782 177.109C434.782 172.051 433.698 168.186 431.53 165.512C429.435 162.838 426.364 161.502 422.317 161.502C417.837 161.502 414.369 163.091 411.912 166.271C409.528 169.45 408.335 173.894 408.335 179.602V181.011C408.335 186.937 409.781 191.381 412.671 194.343C415.634 197.233 419.788 198.679 425.136 198.679C428.243 198.679 431.133 198.281 433.807 197.486C436.552 196.619 439.154 195.246 441.611 193.368L445.621 202.472C443.02 204.568 439.912 206.194 436.3 207.35C432.687 208.506 428.857 209.084 424.81 209.084ZM480.944 209.084C474.441 209.084 469.527 207.386 466.204 203.99C462.88 200.593 461.218 195.499 461.218 188.707V163.453H450.704V153.264H461.218V139.282L474.766 135.814V153.264H489.399V163.453H474.766V187.84C474.766 191.597 475.489 194.235 476.934 195.752C478.379 197.27 480.366 198.028 482.895 198.028C484.268 198.028 485.424 197.92 486.364 197.703C487.375 197.486 488.351 197.197 489.29 196.836V207.566C488.062 208.072 486.689 208.434 485.171 208.65C483.726 208.939 482.317 209.084 480.944 209.084Z" fill="#000637"/>
<path d="M200.454 208H199.454V209H200.454V208ZM200.454 131.587V130.587H199.454V131.587H200.454ZM253.131 136.898L252.511 137.682L252.519 137.688L253.131 136.898ZM255.732 163.127L254.975 162.474L254.975 162.474L255.732 163.127ZM244.351 169.522H243.351V170.771L244.57 170.498L244.351 169.522ZM244.351 167.896L244.493 166.907L243.351 166.743V167.896H244.351ZM257.25 173.966L256.518 174.649L256.526 174.657L256.534 174.665L257.25 173.966ZM254.865 202.472L255.482 203.259L255.49 203.253L254.865 202.472ZM213.894 197.378H212.894V198.378H213.894V197.378ZM244.568 194.777L245.123 195.609L245.131 195.603L245.139 195.598L244.568 194.777ZM244.568 177.218L243.998 178.039L244.006 178.045L244.013 178.05L244.568 177.218ZM213.894 174.508V173.508H212.894V174.508H213.894ZM213.894 163.995H212.894V164.995H213.894V163.995ZM242.617 161.285L243.221 162.082L243.225 162.079L242.617 161.285ZM242.617 144.918L241.998 145.704L242.011 145.714L242.025 145.724L242.617 144.918ZM213.894 142.1V141.1H212.894V142.1H213.894ZM201.454 208V131.587H199.454V208H201.454ZM200.454 132.587H233.946V130.587H200.454V132.587ZM233.946 132.587C242.13 132.587 248.272 134.332 252.511 137.682L253.751 136.113C249.03 132.382 242.382 130.587 233.946 130.587V132.587ZM252.519 137.688C256.728 140.947 258.851 145.482 258.851 151.422H260.851C260.851 144.932 258.494 139.785 253.743 136.107L252.519 137.688ZM258.851 151.422C258.851 155.832 257.548 159.495 254.975 162.474L256.489 163.781C259.408 160.401 260.851 156.26 260.851 151.422H258.851ZM254.975 162.474C252.394 165.463 248.804 167.501 244.133 168.546L244.57 170.498C249.581 169.376 253.579 167.151 256.489 163.781L254.975 162.474ZM245.351 169.522V167.896H243.351V169.522H245.351ZM244.21 168.886C249.609 169.658 253.677 171.604 256.518 174.649L257.981 173.284C254.753 169.825 250.222 167.725 244.493 166.907L244.21 168.886ZM256.534 174.665C259.425 177.623 260.91 181.582 260.91 186.648H262.91C262.91 181.164 261.288 176.668 257.965 173.267L256.534 174.665ZM260.91 186.648C260.91 193.181 258.667 198.15 254.24 201.691L255.49 203.253C260.456 199.28 262.91 193.699 262.91 186.648H260.91ZM254.248 201.685C249.786 205.186 243.494 207 235.247 207V209C243.764 209 250.55 207.129 255.482 203.259L254.248 201.685ZM235.247 207H200.454V209H235.247V207ZM213.894 198.378H233.621V196.378H213.894V198.378ZM233.621 198.378C238.422 198.378 242.294 197.495 245.123 195.609L244.013 193.945C241.64 195.527 238.213 196.378 233.621 196.378V198.378ZM245.139 195.598C248.083 193.553 249.47 190.27 249.47 185.997H247.47C247.47 189.818 246.256 192.387 243.998 193.955L245.139 195.598ZM249.47 185.997C249.47 181.662 248.088 178.363 245.123 176.386L244.013 178.05C246.251 179.541 247.47 182.095 247.47 185.997H249.47ZM245.139 176.396C242.307 174.43 238.428 173.508 233.621 173.508V175.508C238.207 175.508 241.627 176.393 243.998 178.039L245.139 176.396ZM233.621 173.508H213.894V175.508H233.621V173.508ZM212.894 174.508V197.378H214.894V174.508H212.894ZM213.894 164.995H231.562V162.995H213.894V164.995ZM231.562 164.995C236.633 164.995 240.581 164.082 243.221 162.082L242.013 160.488C239.885 162.1 236.462 162.995 231.562 162.995V164.995ZM243.225 162.079C245.972 159.978 247.302 156.913 247.302 153.047H245.302C245.302 156.408 244.176 158.834 242.01 160.49L243.225 162.079ZM247.302 153.047C247.302 149.183 245.972 146.144 243.21 144.113L242.025 145.724C244.176 147.306 245.302 149.686 245.302 153.047H247.302ZM243.236 144.133C240.593 142.051 236.639 141.1 231.562 141.1V143.1C236.456 143.1 239.872 144.028 241.998 145.704L243.236 144.133ZM231.562 141.1H213.894V143.1H231.562V141.1ZM212.894 142.1V163.995H214.894V142.1H212.894ZM273.121 232.604L272.161 232.885L272.408 233.73L273.278 233.592L273.121 232.604ZM269.977 221.874L269.769 220.896L268.715 221.12L269.018 222.155L269.977 221.874ZM278.54 219.381L278.164 218.454L278.164 218.454L278.54 219.381ZM284.285 215.696L284.992 216.403L284.992 216.403L284.285 215.696ZM288.078 209.843L288.999 210.233L288.999 210.233L288.078 209.843ZM290.788 203.448L291.786 203.509L289.867 203.058L290.788 203.448ZM290.463 208.759L289.544 209.154L291.461 208.82L290.463 208.759ZM266.617 153.264V152.264H265.099L265.699 153.659L266.617 153.264ZM281.033 153.264L281.961 152.892L281.709 152.264H281.033V153.264ZM298.158 195.969V196.969H299.637L299.086 195.597L298.158 195.969ZM295.015 195.969L294.088 195.595L293.533 196.969H295.015V195.969ZM312.249 153.264V152.264H311.574L311.321 152.89L312.249 153.264ZM325.906 153.264L326.824 153.66L327.426 152.264H325.906V153.264ZM300.976 211.035L300.058 210.639L300.056 210.643L300.976 211.035ZM295.557 220.681L294.765 220.071L294.757 220.081L295.557 220.681ZM289.271 226.859L288.71 226.032L288.701 226.038L288.692 226.044L289.271 226.859ZM281.9 230.545L281.592 229.593L281.592 229.593L281.9 230.545ZM274.08 232.323L270.937 221.593L269.018 222.155L272.161 232.885L274.08 232.323ZM270.186 222.852C273.619 222.121 276.533 221.275 278.916 220.307L278.164 218.454C275.922 219.365 273.128 220.181 269.769 220.896L270.186 222.852ZM278.916 220.307C281.333 219.326 283.366 218.029 284.992 216.403L283.578 214.988C282.169 216.397 280.372 217.557 278.164 218.454L278.916 220.307ZM284.992 216.403C286.617 214.778 287.947 212.712 288.999 210.233L287.158 209.452C286.186 211.742 284.987 213.579 283.578 214.988L284.992 216.403ZM288.999 210.233L291.709 203.838L289.867 203.058L287.157 209.452L288.999 210.233ZM289.79 203.387L289.465 208.698L291.461 208.82L291.786 203.509L289.79 203.387ZM291.382 208.364L267.536 152.869L265.699 153.659L289.544 209.154L291.382 208.364ZM266.617 154.264H281.033V152.264H266.617V154.264ZM280.105 153.636L297.23 196.341L299.086 195.597L281.961 152.892L280.105 153.636ZM298.158 194.969H295.015V196.969H298.158V194.969ZM295.942 196.343L313.176 153.638L311.321 152.89L294.088 195.595L295.942 196.343ZM312.249 154.264H325.906V152.264H312.249V154.264ZM324.987 152.868L300.058 210.639L301.895 211.431L326.824 153.66L324.987 152.868ZM300.056 210.643C298.418 214.491 296.651 217.627 294.765 220.071L296.349 221.292C298.365 218.678 300.211 215.383 301.896 211.427L300.056 210.643ZM294.757 220.081C292.86 222.611 290.841 224.587 288.71 226.032L289.831 227.687C292.18 226.097 294.353 223.954 296.357 221.281L294.757 220.081ZM288.692 226.044C286.536 227.574 284.171 228.757 281.592 229.593L282.209 231.496C284.976 230.598 287.525 229.325 289.849 227.675L288.692 226.044ZM281.592 229.593C278.974 230.442 276.099 231.118 272.964 231.616L273.278 233.592C276.501 233.079 279.479 232.381 282.209 231.496L281.592 229.593ZM333.056 208H332.056V209H333.056V208ZM332.839 160.093L331.841 160.155L331.841 160.155L332.839 160.093ZM332.189 153.264V152.264H331.051L331.197 153.392L332.189 153.264ZM345.304 153.264L346.299 153.165L346.209 152.264H345.304V153.264ZM346.388 164.103V165.103H347.493L347.383 164.003L346.388 164.103ZM345.087 164.103L344.176 163.69L343.536 165.103H345.087V164.103ZM352.782 155.323L353.294 156.183L353.301 156.179L353.308 156.175L352.782 155.323ZM379.121 157.6L379.864 156.931L379.121 157.6ZM383.998 208V209H384.998V208H383.998ZM370.45 208H369.45V209H370.45V208ZM367.848 165.729L367.087 166.377L367.1 166.392L367.114 166.407L367.848 165.729ZM350.29 166.704L351.017 167.391L351.017 167.391L350.29 166.704ZM346.604 208V209H347.604V208H346.604ZM334.056 208V166.921H332.056V208H334.056ZM334.056 166.921C334.056 164.659 333.983 162.363 333.837 160.03L331.841 160.155C331.984 162.447 332.056 164.702 332.056 166.921H334.056ZM333.837 160.03C333.691 157.697 333.472 155.399 333.181 153.136L331.197 153.392C331.483 155.61 331.698 157.864 331.841 160.155L333.837 160.03ZM332.189 154.264H345.304V152.264H332.189V154.264ZM344.309 153.364L345.393 164.202L347.383 164.003L346.299 153.165L344.309 153.364ZM346.388 163.103H345.087V165.103H346.388V163.103ZM345.998 164.515C347.653 160.859 350.085 158.094 353.294 156.183L352.271 154.464C348.688 156.599 345.989 159.687 344.176 163.69L345.998 164.515ZM353.308 156.175C356.527 154.188 360.279 153.18 364.597 153.18V151.18C359.955 151.18 355.83 152.268 352.257 154.472L353.308 156.175ZM364.597 153.18C370.841 153.18 375.372 154.929 378.377 158.269L379.864 156.931C376.367 153.045 371.215 151.18 364.597 151.18V153.18ZM378.377 158.269C381.391 161.617 382.998 166.96 382.998 174.508H384.998C384.998 166.737 383.353 160.808 379.864 156.931L378.377 158.269ZM382.998 174.508V208H384.998V174.508H382.998ZM383.998 207H370.45V209H383.998V207ZM371.45 208V175.158H369.45V208H371.45ZM371.45 175.158C371.45 170.667 370.575 167.208 368.583 165.05L367.114 166.407C368.59 168.007 369.45 170.835 369.45 175.158H371.45ZM368.61 165.08C366.701 162.839 363.849 161.802 360.261 161.802V163.802C363.466 163.802 365.672 164.716 367.087 166.377L368.61 165.08ZM360.261 161.802C355.846 161.802 352.241 163.182 349.562 166.018L351.017 167.391C353.252 165.024 356.294 163.802 360.261 163.802V161.802ZM349.562 166.018C346.895 168.842 345.604 172.576 345.604 177.109H347.604C347.604 172.972 348.771 169.769 351.017 167.391L349.562 166.018ZM345.604 177.109V208H347.604V177.109H345.604ZM346.604 207H333.056V209H346.604V207ZM403.241 201.497L403.938 200.78L403.938 200.78L403.241 201.497ZM398.797 165.729L399.683 166.194L399.683 166.194L398.797 165.729ZM408.119 155.757L407.611 154.895L407.604 154.9L408.119 155.757ZM435.432 155.54L434.898 156.385L435.432 155.54ZM443.453 164.97L442.54 165.378L442.543 165.384L442.546 165.391L443.453 164.97ZM446.271 182.746V183.746H447.271V182.746H446.271ZM406.384 182.746H405.384V183.746H406.384V182.746ZM406.384 175.592V174.592H405.384V175.592H406.384ZM436.625 175.592L437.26 176.364L439.412 174.592H436.625V175.592ZM434.782 177.109H433.782V179.228L435.418 177.881L434.782 177.109ZM431.53 165.512L430.743 166.129L430.748 166.135L430.754 166.142L431.53 165.512ZM411.912 166.271L411.121 165.659L411.117 165.665L411.112 165.671L411.912 166.271ZM412.671 194.343L411.955 195.041L411.964 195.05L411.973 195.059L412.671 194.343ZM433.807 197.486L434.092 198.445L434.1 198.443L434.108 198.44L433.807 197.486ZM441.611 193.368L442.526 192.965L442.013 191.801L441.003 192.573L441.611 193.368ZM445.621 202.472L446.248 203.251L446.845 202.77L446.536 202.069L445.621 202.472ZM436.3 207.35L435.995 206.397L435.995 206.397L436.3 207.35ZM424.81 208.084C415.822 208.084 408.908 205.612 403.938 200.78L402.544 202.214C407.979 207.498 415.445 210.084 424.81 210.084V208.084ZM403.938 200.78C398.97 195.949 396.437 189.294 396.437 180.686H394.437C394.437 189.71 397.107 196.928 402.544 202.214L403.938 200.78ZM396.437 180.686C396.437 175.11 397.531 170.289 399.683 166.194L397.912 165.264C395.584 169.695 394.437 174.846 394.437 180.686H396.437ZM399.683 166.194C401.841 162.086 404.822 158.901 408.633 156.615L407.604 154.9C403.466 157.382 400.234 160.845 397.912 165.264L399.683 166.194ZM408.626 156.619C412.499 154.337 417.015 153.18 422.209 153.18V151.18C416.709 151.18 411.832 152.408 407.611 154.895L408.626 156.619ZM422.209 153.18C427.343 153.18 431.554 154.27 434.898 156.385L435.967 154.695C432.23 152.331 427.625 151.18 422.209 151.18V153.18ZM434.898 156.385C438.262 158.514 440.809 161.5 442.54 165.378L444.366 164.562C442.484 160.347 439.684 157.047 435.967 154.695L434.898 156.385ZM442.546 165.391C444.352 169.28 445.271 173.864 445.271 179.169H447.271C447.271 173.635 446.312 168.753 444.36 164.549L442.546 165.391ZM445.271 179.169V182.746H447.271V179.169H445.271ZM446.271 181.746H406.384V183.746H446.271V181.746ZM407.384 182.746V175.592H405.384V182.746H407.384ZM406.384 176.592H436.625V174.592H406.384V176.592ZM435.989 174.82L434.146 176.338L435.418 177.881L437.26 176.364L435.989 174.82ZM435.782 177.109C435.782 171.926 434.674 167.801 432.307 164.882L430.754 166.142C432.723 168.57 433.782 172.177 433.782 177.109H435.782ZM432.318 164.895C429.995 161.932 426.606 160.502 422.317 160.502V162.502C426.122 162.502 428.875 163.744 430.743 166.129L432.318 164.895ZM422.317 160.502C417.568 160.502 413.791 162.204 411.121 165.659L412.704 166.882C414.947 163.978 418.106 162.502 422.317 162.502V160.502ZM411.112 165.671C408.552 169.084 407.335 173.769 407.335 179.602H409.335C409.335 174.019 410.503 169.816 412.712 166.871L411.112 165.671ZM407.335 179.602V181.011H409.335V179.602H407.335ZM407.335 181.011C407.335 187.085 408.817 191.824 411.955 195.041L413.387 193.645C410.745 190.937 409.335 186.789 409.335 181.011H407.335ZM411.973 195.059C415.172 198.18 419.607 199.679 425.136 199.679V197.679C419.97 197.679 416.095 196.287 413.369 193.627L411.973 195.059ZM425.136 199.679C428.328 199.679 431.316 199.27 434.092 198.445L433.522 196.528C430.95 197.292 428.157 197.679 425.136 197.679V199.679ZM434.108 198.44C436.972 197.535 439.676 196.106 442.218 194.162L441.003 192.573C438.632 194.387 436.133 195.703 433.505 196.533L434.108 198.44ZM440.695 193.771L444.706 202.875L446.536 202.069L442.526 192.965L440.695 193.771ZM444.994 201.693C442.5 203.702 439.506 205.274 435.995 206.397L436.604 208.302C440.319 207.113 443.539 205.433 446.248 203.251L444.994 201.693ZM435.995 206.397C432.487 207.52 428.76 208.084 424.81 208.084V210.084C428.953 210.084 432.886 209.492 436.604 208.302L435.995 206.397ZM466.204 203.99L465.489 204.689L465.489 204.689L466.204 203.99ZM461.218 163.453H462.218V162.453H461.218V163.453ZM450.704 163.453H449.704V164.453H450.704V163.453ZM450.704 153.264V152.264H449.704V153.264H450.704ZM461.218 153.264V154.264H462.218V153.264H461.218ZM461.218 139.282L460.97 138.313L460.218 138.506V139.282H461.218ZM474.766 135.814H475.766V134.525L474.518 134.845L474.766 135.814ZM474.766 153.264H473.766V154.264H474.766V153.264ZM489.399 153.264H490.399V152.264H489.399V153.264ZM489.399 163.453V164.453H490.399V163.453H489.399ZM474.766 163.453V162.453H473.766V163.453H474.766ZM476.934 195.752L476.21 196.442L476.21 196.442L476.934 195.752ZM486.364 197.703L486.154 196.725L486.147 196.727L486.139 196.729L486.364 197.703ZM489.29 196.836H490.29V195.38L488.931 195.903L489.29 196.836ZM489.29 207.566L489.671 208.491L490.29 208.236V207.566H489.29ZM485.171 208.65L485.03 207.66L485.003 207.664L484.975 207.67L485.171 208.65ZM480.944 208.084C474.608 208.084 469.993 206.432 466.918 203.29L465.489 204.689C469.062 208.34 474.274 210.084 480.944 210.084V208.084ZM466.918 203.29C463.843 200.148 462.218 195.35 462.218 188.707H460.218C460.218 195.648 461.916 201.039 465.489 204.689L466.918 203.29ZM462.218 188.707V163.453H460.218V188.707H462.218ZM461.218 162.453H450.704V164.453H461.218V162.453ZM451.704 163.453V153.264H449.704V163.453H451.704ZM450.704 154.264H461.218V152.264H450.704V154.264ZM462.218 153.264V139.282H460.218V153.264H462.218ZM461.466 140.251L475.014 136.782L474.518 134.845L460.97 138.313L461.466 140.251ZM473.766 135.814V153.264H475.766V135.814H473.766ZM474.766 154.264H489.399V152.264H474.766V154.264ZM488.399 153.264V163.453H490.399V153.264H488.399ZM489.399 162.453H474.766V164.453H489.399V162.453ZM473.766 163.453V187.84H475.766V163.453H473.766ZM473.766 187.84C473.766 191.669 474.492 194.638 476.21 196.442L477.658 195.063C476.486 193.832 475.766 191.526 475.766 187.84H473.766ZM476.21 196.442C477.882 198.198 480.154 199.028 482.895 199.028V197.028C480.579 197.028 478.876 196.342 477.658 195.063L476.21 196.442ZM482.895 199.028C484.315 199.028 485.552 198.917 486.589 198.678L486.139 196.729C485.297 196.923 484.222 197.028 482.895 197.028V199.028ZM486.573 198.681C487.634 198.454 488.66 198.15 489.649 197.769L488.931 195.903C488.042 196.245 487.116 196.519 486.154 196.725L486.573 198.681ZM488.29 196.836V207.566H490.29V196.836H488.29ZM488.909 206.642C487.769 207.112 486.478 207.454 485.03 207.66L485.313 209.64C486.9 209.414 488.355 209.033 489.671 208.491L488.909 206.642ZM484.975 207.67C483.59 207.947 482.247 208.084 480.944 208.084V210.084C482.388 210.084 483.863 209.932 485.368 209.631L484.975 207.67Z" fill="black" mask="url(#path-2-outside-1_2_19)"/>
<defs>
<linearGradient id="paint0_linear_2_19" x1="57.265" y1="301.572" x2="70.5608" y2="37.5603" gradientUnits="userSpaceOnUse">
<stop stop-color="#089CFC"/>
<stop offset="0.99" stop-color="#2B2DFD"/>
</linearGradient>
<clipPath id="clip0_2_19">
<rect width="128.492" height="370.205" fill="white"/>
</clipPath>
</defs>
</svg>
