<?xml version="1.0" encoding="UTF-8"?><svg id="Layer_1" xmlns="http://www.w3.org/2000/svg" viewBox="0 0 358.22 119.5"><defs><style>.cls-1{fill:#feb720;}</style></defs><path class="cls-1" d="M95.24,60c0-6.91,5.41-12.42,13.29-12.42s13.72,4.83,13.72,12.42c0,7.06-4.49,12.71-13.68,12.71-6.96,0-13.34-4.93-13.34-12.71ZM115.97,68.5c0-4.06-8.12-19.18-12.37-19.18-1.21,0-1.93.87-1.93,2.37,0,4.74,8.36,19.28,12.32,19.28,1.3,0,1.98-.82,1.98-2.46Z"/><path class="cls-1" d="M171.19,71.45v.77h-14.01v-.77h1.93v-14.55c0-3.77-.58-5.03-2.66-5.03-1.02,0-2.03.24-3,.72.1.68.15,1.4.15,2.22v16.62h1.93v.77h-13.53v-.77h1.93v-14.55c0-3.77-.58-5.03-2.66-5.03-.97,0-1.93.19-2.85.63v18.94h1.93v.77h-14.01v-.77h2.42v-17.64l-2.75-2.37,12.42-4.35v4.83c3.91-3.14,6.48-4.59,9.18-4.59,3.29,0,5.12,1.64,5.75,4.78,4.06-3.29,6.67-4.78,9.42-4.78,4.11,0,5.99,2.56,5.99,7.49v16.62h2.42Z"/><path class="cls-1" d="M203.56,59.03c0,8.5-4.69,13.68-11.21,13.68-2.22,0-4.16-.68-5.8-1.74v12.56h3.87v.77h-15.95v-.77h2.42v-29.72l-2.75-2.37,12.42-4.35v4.78c2.56-2.61,5.56-4.3,8.41-4.3,4.88,0,8.6,3.96,8.6,11.45ZM193.22,61.78c0-6.47-1.4-9.71-4.64-9.71-.72,0-1.35.19-2.03.48v17.59c.68.48,1.55.73,2.37.73,2.51,0,4.3-3.29,4.3-9.09Z"/><path class="cls-1" d="M208.43,60c0-6.91,5.41-12.42,13.29-12.42s13.72,4.83,13.72,12.42c0,7.06-4.49,12.71-13.68,12.71-6.96,0-13.34-4.93-13.34-12.71ZM229.16,68.5c0-4.06-8.12-19.18-12.37-19.18-1.21,0-1.93.87-1.93,2.37,0,4.74,8.36,19.28,12.32,19.28,1.3,0,1.98-.82,1.98-2.46Z"/><path class="cls-1" d="M239.59,71.45l1.5-7.88h.05l5.99,8.02c.68.19,1.02.24,1.59.24,2.13,0,3.58-1.11,3.58-3.09,0-1.45-.87-2.27-2.9-3.33l-3.19-1.69c-4.01-2.13-5.94-4.4-5.94-8.07,0-4.88,3.96-8.07,10.39-8.07,3.14,0,5.65.53,8.02,1.4l-1.88,7.63h-.05l-5.61-7.97c-.24-.1-.58-.14-.82-.14-2.13,0-3.19,1.21-3.19,2.56,0,1.69.77,2.9,3.62,4.4l3.62,1.93c3.33,1.79,5.07,4.2,5.07,7.2,0,5.03-5.07,8.12-11.02,8.12-2.27,0-5.46-.24-8.84-1.26Z"/><path class="cls-1" d="M264.05,71.45h2.42v-17.64l-2.75-2.37,12.42-4.35v24.36h2.42v.77h-14.5v-.77ZM265.94,40.86c0-3.19,1.93-5.36,5.36-5.36s5.36,2.17,5.36,5.36-1.93,5.41-5.36,5.41-5.36-2.17-5.36-5.41Z"/><path class="cls-1" d="M303.31,67.87c-2.03,3.09-5.27,4.83-9.76,4.83-6.81,0-12.42-4.74-12.42-12.23,0-7.05,4.74-12.9,12.47-12.9,4.54,0,7.68,2.66,7.68,6.19,0,4.01-3.09,7.54-8.89,9.71,2.75,2.71,6.23,4.49,9.47,4.49.48,0,.97-.05,1.4-.14l.05.05ZM287.12,52.12c0,4.01,2.08,8.07,4.98,11.07,1.35-1.74,1.88-3.67,1.88-6.14,0-4.2-2.8-7.78-4.88-7.78-1.26,0-1.98,1.06-1.98,2.85Z"/><g id="Artwork_5"><path class="cls-1" d="M9.28,75.95C2.62,48.5,16.45,20.69,48.13,12.77c10.62-2.66,20.31-3.5,33.54-2.05l5.73,53.81-.19.05C61.69,36.11,41.01,22.27,29.83,25.07c-4.66,1.16-6.62,5.22-4.94,11.93,7.5,30.01,44.87,54.32,71.14,47.76,2.42-.61,3.87-1.16,5.4-2.14l.23.14c-5.22,14.77-17.38,23.95-33.96,28.09-25.34,6.34-51.44-6.15-58.43-34.9Z"/></g><path class="cls-1" d="M308.82,69.22c0-1.6,1.01-2.59,2.56-2.59s2.56.99,2.56,2.59-1.01,2.59-2.56,2.59-2.56-.99-2.56-2.59Z"/><path class="cls-1" d="M318.42,70.98h1.33v-9.74l-1.52-1.31,6.86-2.4v13.45h1.33v.43h-8.01v-.43ZM319.46,54.09c0-1.76,1.07-2.96,2.96-2.96s2.96,1.2,2.96,2.96-1.07,2.99-2.96,2.99-2.96-1.2-2.96-2.99Z"/><path class="cls-1" d="M329.52,64.66c0-3.82,2.99-6.86,7.34-6.86s7.58,2.67,7.58,6.86c0,3.9-2.48,7.02-7.55,7.02-3.84,0-7.36-2.72-7.36-7.02ZM340.97,69.35c0-2.24-4.48-10.59-6.83-10.59-.67,0-1.07.48-1.07,1.31,0,2.62,4.62,10.65,6.8,10.65.72,0,1.09-.45,1.09-1.36Z"/></svg>