<?xml version="1.0" encoding="UTF-8" standalone="no"?>
<!DOCTYPE svg PUBLIC "-//W3C//DTD SVG 1.1//EN" "http://www.w3.org/Graphics/SVG/1.1/DTD/svg11.dtd">
<svg width="100%" height="100%" viewBox="0 0 1024 934" version="1.1" xmlns="http://www.w3.org/2000/svg" xmlns:xlink="http://www.w3.org/1999/xlink" xml:space="preserve" xmlns:serif="http://www.serif.com/" style="fill-rule:evenodd;clip-rule:evenodd;stroke-linejoin:round;stroke-miterlimit:2;">
    <path d="M476.382,423.832L458.367,405.824C380.655,450.226 285.858,436.85 221.939,372.956L198.843,349.87C178.234,349.62 156.498,348.243 139.002,340.911L196.5,398.385C274.605,476.46 394.698,487.654 484.933,431.95C481.982,429.322 479.173,426.621 476.382,423.832Z" style="fill:url(#_Linear1);fill-rule:nonzero;"/>
    <path d="M323.712,271.223C317.45,264.964 309.472,260.547 302.387,255.612C262.798,277.071 216.66,284.724 173.207,277.214C140.236,271.509 108.16,257.793 80.986,235.315C108.16,212.837 139.753,198.96 172.724,193.256C216.177,185.727 261.599,192.826 301.189,214.285C312.227,220.24 323.998,226.07 333.873,234.314C338.703,238.23 344.625,241.27 349.151,245.794L361.423,258.062L386.862,283.49L463.644,360.242L488.529,385.116L489.083,385.671L501.803,398.385C505.917,402.498 508.923,407.738 513.252,411.564C522.715,419.594 530.676,426.192 540.963,432.594C631.18,488.298 749.377,476.46 827.482,398.385L884.98,340.911C867.466,348.243 845.748,349.602 825.139,349.87L802.043,372.956C738.124,436.85 640.93,447.83 565.615,405.824C555.078,399.977 546.383,394.54 535.435,385.116L560.319,360.242L637.102,283.49C636.797,283.794 633.291,275.497 629.015,271.223L613.756,255.969L534.898,334.813L512,357.702L489.101,334.813L412.766,258.509L384.787,230.54L407.685,207.651L486.561,128.807L461.122,103.379L381.781,182.687L356.342,208.116C350.546,203.735 338.381,194.221 328.202,187.927C292.119,165.699 251.903,154.791 210.775,153.968C191.794,153.61 171.758,154.54 153.188,158.76C111.559,168.113 71.129,188.016 38.749,220.365L28.569,230.54L43.829,245.794C76.191,278.143 115.048,299.638 156.677,308.991C175.246,313.211 193.69,315.732 212.671,315.375C253.781,314.57 294.552,303.125 331.995,279.52L323.712,271.223Z" style="fill:url(#_Linear2);fill-rule:nonzero;"/>
    <path d="M216.857,93.203C276,34.084 363.606,20.368 436.041,51.913C474.414,71.19 493.001,84.387 529.388,120.742L539.997,131.347L616.332,207.651L641.771,233.08L654.49,245.794C658.766,250.068 661.861,255.415 666.405,259.331C675.761,267.271 685.01,275.121 695.189,281.434C731.272,303.662 771.81,315.536 812.921,316.34C831.901,316.698 849.558,313.694 868.128,309.474C909.757,300.121 947.808,278.143 980.17,245.794L995.43,230.54L985.251,220.365C952.889,188.016 912.118,168.435 870.507,159.064C851.938,154.844 832.223,153.592 813.243,153.95C772.132,154.755 732.221,165.359 696.137,187.587C685.958,193.899 673.471,203.717 667.675,208.098L642.236,182.669L565.436,105.918L540.552,81.043C546.401,76.716 560.194,66.183 570.731,60.336C646.046,18.312 743.241,29.31 807.142,93.203L830.238,116.29C845.766,121.637 867.484,122.996 890.078,125.249L832.581,67.757C754.475,-10.318 633.112,-20.225 542.895,35.461C532.609,41.863 522.107,49.731 512.644,57.76C503.18,49.731 491.713,41.541 481.444,35.139C391.209,-20.547 269.524,-10.318 191.418,67.757L133.921,125.231C156.516,122.996 178.252,121.619 193.762,116.272L216.857,93.203ZM851.419,193.399C884.389,199.103 916.143,213.141 943.318,235.619C916.143,258.097 884.389,272.135 851.419,277.839C807.965,285.368 762.472,278.34 722.882,256.881C711.844,250.926 701.307,243.863 691.432,235.619C701.307,227.375 711.844,220.312 722.882,214.357C762.472,192.898 807.947,185.87 851.419,193.399Z" style="fill:url(#_Linear3);fill-rule:nonzero;"/>
    <path d="M108.82,610.398L108.82,774.42L130.67,775.591L130.67,806.834L39.438,806.834L39.438,777.154L52.088,775.982C59.499,775.201 63.204,771.035 63.204,763.485L63.204,654.918C63.204,650.492 62.438,647.498 60.904,645.936C59.627,644.374 57.199,643.593 53.621,643.593L40.205,642.811L40.205,610.398L108.82,610.398ZM60.521,576.812C55.155,571.345 52.471,564.445 52.471,556.114C52.471,547.783 55.155,540.883 60.521,535.416C65.888,529.688 72.915,526.824 81.604,526.824C90.293,526.824 97.321,529.688 102.687,535.416C108.309,540.883 111.12,547.783 111.12,556.114C111.12,564.445 108.309,571.345 102.687,576.812C97.321,582.019 90.293,584.623 81.604,584.623C72.915,584.623 65.888,582.019 60.521,576.812Z" style="fill-rule:nonzero;"/>
    <path d="M324.979,618.208L324.979,763.485C324.979,767.651 325.618,770.515 326.895,772.077C328.429,773.639 330.984,774.55 334.562,774.81L346.829,775.591L346.829,806.834L285.879,806.834L285.879,784.183L284.729,783.793C271.952,802.538 254.446,811.911 232.213,811.911C206.147,811.911 186.853,803.449 174.331,786.526C161.809,769.603 155.548,746.432 155.548,717.012C155.548,681.604 163.981,654.007 180.847,634.22C197.714,614.433 223.013,604.54 256.746,604.54C278.468,604.54 301.212,609.096 324.979,618.208ZM280.513,744.74L280.513,643.593C273.357,640.208 263.518,638.516 250.996,638.516C233.874,638.516 221.48,645.545 213.814,659.604C206.147,673.663 202.314,692.279 202.314,715.45C202.314,757.627 215.602,778.716 242.18,778.716C253.424,778.716 262.624,775.331 269.78,768.562C276.935,761.532 280.513,753.592 280.513,744.74Z" style="fill-rule:nonzero;"/>
    <path d="M540.94,806.443C538.64,835.342 530.462,856.561 516.407,870.1C502.351,883.638 480.374,890.407 450.474,890.407C420.574,890.407 397.191,886.111 380.325,877.52L380.325,823.236L416.741,820.112L416.741,838.857C416.741,845.887 419.936,850.573 426.324,852.916C432.713,855.52 441.53,856.822 452.774,856.822C469.129,856.822 480.629,851.745 487.274,841.591C493.918,831.698 497.24,817.639 497.24,799.414L497.24,777.935C484.974,792.514 467.979,799.804 446.257,799.804C432.969,799.804 421.213,797.201 410.991,791.994C401.025,786.787 393.23,779.757 387.608,770.905C376.619,753.201 371.125,732.373 371.125,708.42C371.125,674.314 380.197,648.539 398.341,631.096C416.486,613.392 440.635,604.54 470.79,604.54C495.835,604.54 519.473,609.356 541.706,618.989L541.706,763.876C541.706,786.006 541.451,800.195 540.94,806.443ZM497.24,727.166L497.24,643.202C488.296,640.078 478.074,638.516 466.574,638.516C450.985,638.516 438.974,644.374 430.541,656.089C422.363,667.805 418.274,683.687 418.274,703.734C418.274,744.87 431.563,765.438 458.141,765.438C469.129,765.438 478.329,762.053 485.74,755.284C493.407,748.254 497.24,738.882 497.24,727.166Z" style="fill-rule:nonzero;"/>
    <path d="M663.29,778.325C691.145,778.325 705.073,755.414 705.073,709.592C705.073,686.421 701.879,668.847 695.49,656.871C689.357,644.894 678.879,638.906 664.057,638.906C649.49,638.906 638.757,644.634 631.857,656.089C624.957,667.545 621.507,683.166 621.507,702.953C621.507,739.663 628.152,762.704 641.44,772.077C647.318,776.242 654.601,778.325 663.29,778.325ZM575.125,708.42C575.125,689.154 577.936,672.492 583.558,658.433C589.18,644.113 596.719,633.178 606.174,625.628C624.318,611.569 644.379,604.54 666.357,604.54C681.69,604.54 694.595,607.143 705.073,612.35C715.806,617.297 724.112,623.155 729.989,629.924C736.123,636.433 741.234,646.066 745.323,658.823C749.667,671.32 751.839,686.16 751.839,703.344C751.839,739.272 743.278,766.479 726.156,784.964C709.034,803.449 687.057,812.692 660.224,812.692C633.646,812.692 612.819,803.97 597.741,786.526C582.663,768.822 575.125,742.787 575.125,708.42Z" style="fill-rule:nonzero;"/>
    <path d="M775.345,641.64L775.345,610.398L840.127,610.398L840.127,635.782C846.772,626.149 855.588,618.599 866.577,613.131C877.566,607.403 889.449,604.54 902.227,604.54C921.649,604.54 936.598,610.267 947.076,621.723C957.809,632.918 963.176,649.841 963.176,672.492L963.176,774.42L985.026,775.591L985.026,806.834L893.793,806.834L893.793,777.154L906.443,775.982C910.277,775.461 913.088,774.42 914.877,772.858C916.665,771.035 917.56,767.781 917.56,763.095L917.56,682.645C917.56,668.326 915.388,657.782 911.043,651.013C906.699,643.983 898.393,640.468 886.127,640.468C874.116,640.468 864.533,644.374 857.377,652.184C850.222,659.995 846.644,669.237 846.644,679.912L846.644,774.42L868.494,775.591L868.494,806.834L777.262,806.834L777.262,777.154L789.911,775.982C793.745,775.461 796.556,774.42 798.345,772.858C800.133,771.035 801.028,767.781 801.028,763.095L801.028,654.918C801.028,647.107 797.833,643.072 791.445,642.811L775.345,641.64Z" style="fill-rule:nonzero;"/>
    <defs>
        <linearGradient id="_Linear1" x1="0" y1="0" x2="1" y2="0" gradientUnits="userSpaceOnUse" gradientTransform="matrix(366.743,523.014,-523.014,366.743,136.25,136.058)"><stop offset="0" style="stop-color:rgb(34,167,240);stop-opacity:1"/><stop offset="1" style="stop-color:rgb(155,89,182);stop-opacity:1"/></linearGradient>
        <linearGradient id="_Linear2" x1="0" y1="0" x2="1" y2="0" gradientUnits="userSpaceOnUse" gradientTransform="matrix(366.744,523.014,-523.014,366.744,280.68,34.782)"><stop offset="0" style="stop-color:rgb(34,167,240);stop-opacity:1"/><stop offset="1" style="stop-color:rgb(155,89,182);stop-opacity:1"/></linearGradient>
        <linearGradient id="_Linear3" x1="0" y1="0" x2="1" y2="0" gradientUnits="userSpaceOnUse" gradientTransform="matrix(366.744,523.014,-523.014,366.744,403.7,-51.4807)"><stop offset="0" style="stop-color:rgb(34,167,240);stop-opacity:1"/><stop offset="1" style="stop-color:rgb(155,89,182);stop-opacity:1"/></linearGradient>
    </defs>
</svg>
